<svg width="33" height="27" viewBox="0 0 33 27" fill="none" xmlns="http://www.w3.org/2000/svg">
<path d="M9.58769 1.67991e-08H31.4861C31.8876 1.67991e-08 32.2727 0.158035 32.5566 0.43934C32.8405 0.720644 33 1.10218 33 1.5V25.5C33 25.8978 32.8405 26.2794 32.5566 26.5607C32.2727 26.842 31.8876 27 31.4861 27H9.58769C9.33852 27 9.09319 26.9391 8.87346 26.8227C8.65374 26.7063 8.46643 26.5379 8.32814 26.3325L0.25456 14.3325C0.0885787 14.086 0 13.7963 0 13.5C0 13.2037 0.0885787 12.914 0.25456 12.6675L8.32814 0.6675C8.46643 0.462126 8.65374 0.293748 8.87346 0.177308C9.09319 0.0608669 9.33852 -3.69289e-05 9.58769 1.67991e-08ZM10.3976 3L3.33381 13.5L10.3976 24H29.9722V3H10.3976ZM19.375 11.379L23.6563 7.1355L25.7984 9.258L21.5156 13.5L25.7984 17.742L23.6563 19.8645L19.375 15.621L15.0937 19.8645L12.9516 17.742L17.2344 13.5L12.9516 9.258L15.0937 7.1355L19.375 11.379Z" fill="#FBFBFB"/>
</svg>
