<svg width="22" height="18" viewBox="0 0 22 18" fill="none" xmlns="http://www.w3.org/2000/svg">
<path d="M6.33315 1.11994e-08H20.7981C21.0634 1.11994e-08 21.3177 0.105357 21.5053 0.292893C21.6928 0.48043 21.7981 0.734784 21.7981 1V17C21.7981 17.2652 21.6928 17.5196 21.5053 17.7071C21.3177 17.8946 21.0634 18 20.7981 18H6.33315C6.16856 18 6.0065 17.9594 5.86137 17.8818C5.71623 17.8042 5.5925 17.6919 5.50115 17.555L0.16815 9.555C0.0585107 9.39067 0 9.19755 0 9C0 8.80245 0.0585107 8.60933 0.16815 8.445L5.50115 0.445C5.5925 0.308084 5.71623 0.195832 5.86137 0.118205C6.0065 0.0405779 6.16856 -2.46193e-05 6.33315 1.11994e-08ZM6.86815 2L2.20215 9L6.86815 16H19.7981V2H6.86815ZM12.7982 7.586L15.6262 4.757L17.0411 6.172L14.2121 9L17.0411 11.828L15.6262 13.243L12.7982 10.414L9.97015 13.243L8.55515 11.828L11.3842 9L8.55515 6.172L9.97015 4.757L12.7982 7.586Z" fill="#A5A5A5"/>
</svg>
