<svg width="28" height="23" viewBox="0 0 28 23" fill="none" xmlns="http://www.w3.org/2000/svg">
<path d="M8.13501 1.43103e-08H26.7155C27.0562 1.43103e-08 27.3829 0.134623 27.6238 0.374252C27.8647 0.613882 28 0.93889 28 1.27778V21.7222C28 22.0611 27.8647 22.3861 27.6238 22.6257C27.3829 22.8654 27.0562 23 26.7155 23H8.13501C7.92359 23 7.71543 22.9481 7.529 22.849C7.34257 22.7498 7.18364 22.6063 7.0663 22.4314L0.21599 12.2092C0.0751577 11.9992 0 11.7524 0 11.5C0 11.2476 0.0751577 11.0008 0.21599 10.7908L7.0663 0.568611C7.18364 0.393663 7.34257 0.25023 7.529 0.15104C7.71543 0.0518495 7.92359 -3.1458e-05 8.13501 1.43103e-08ZM8.82223 2.55556L2.82869 11.5L8.82223 20.4444H25.431V2.55556H8.82223ZM16.4394 9.69322L20.072 6.07839L21.8896 7.88644L18.2557 11.5L21.8896 15.1136L20.072 16.9216L16.4394 13.3068L12.8068 16.9216L10.9892 15.1136L14.6231 11.5L10.9892 7.88644L12.8068 6.07839L16.4394 9.69322Z" fill="#202224"/>
</svg>
